<svg width="214" height="223" viewBox="0 0 214 223" fill="none" xmlns="http://www.w3.org/2000/svg">
<rect x="29.8" y="34" width="154.4" height="154.4" rx="40.93" fill="#fff"/>
<path d="M83.0071 117.38C83.0071 118.926 80.565 120.178 77.5519 120.178C74.5388 120.178 72.0967 118.926 72.0967 117.38C72.0967 115.834 74.5388 114.58 77.5519 114.58C80.565 114.58 83.0071 115.834 83.0071 117.38ZM156.127 130.37C152.214 139.45 145.185 144.715 135.505 145.721C124.691 146.844 115.765 142.581 108.593 134.491C105.469 130.968 103.065 126.969 100.635 122.973C97.4366 117.713 93.8432 112.76 88.7269 109.162C83.8985 105.767 78.6321 104.972 73.1057 107.113C65.5629 110.037 60.8768 118.612 63.1781 126.992C64.7365 132.664 70.2613 138.111 76.7085 138.976C82.1389 139.705 86.7615 138.09 90.7821 134.487C92.4364 133.007 94.3368 132.973 95.6693 134.374C97.0946 135.875 97.011 137.7 95.3211 139.32C90.8208 143.636 85.4105 145.753 78.1632 145.937C76.8044 146.097 74.5016 145.526 72.2963 144.809C66.0333 142.774 61.2978 138.849 58.3605 132.882C56.4833 129.07 55.451 125.034 55.923 120.799C56.7711 113.205 60.2516 107.092 66.7792 102.923C72.2484 99.4281 78.2189 98.4949 84.5051 99.9527C89.3103 101.067 93.2953 103.764 96.7897 107.143C100.663 110.885 103.78 115.247 106.549 119.847C109.515 124.773 112.482 129.669 117.021 133.39C123.162 138.421 130.042 140.321 137.83 138.444C145.9 136.499 152.29 128.253 151.329 119.03C150.23 108.471 141.064 100.949 129.881 102.581C126.104 103.13 122.919 104.939 120.118 107.483C119.285 108.24 118.411 108.898 117.165 108.638C115.918 108.376 114.904 107.768 114.494 106.533C114.048 105.188 114.296 103.907 115.344 102.884C118.248 100.044 121.63 97.9579 125.531 96.8065C126.758 96.4444 126.857 95.9616 126.317 94.9123C123.114 88.6895 118.112 84.703 111.244 83.4959C106.674 82.6927 102.103 83.1693 97.8591 85.4458C94.3276 87.3416 91.4955 89.9198 89.4279 93.3601C88.1094 95.5576 85.3903 95.8053 83.866 93.928C82.9498 92.7999 82.9545 91.2662 83.965 89.6366C87.1546 84.4894 91.5574 80.7984 97.1766 78.4972C103.204 76.0273 109.367 75.7642 115.483 77.7002C124.143 80.441 130.138 86.215 133.418 94.725C133.685 95.4215 134.034 95.7681 134.792 95.7712C137.466 95.7836 140.004 96.4769 142.452 97.4859C148.093 99.8119 152.443 103.676 155.209 109.077C158.741 115.972 159.245 123.135 156.127 130.37Z" fill="#219CD6"/>
</svg>
